<svg width="22" height="22" viewBox="0 0 22 22" fill="none" xmlns="http://www.w3.org/2000/svg">
<g id="gear-solid 1">
<path id="Vector" d="M20.7066 7.15859C20.8441 7.53242 20.7281 7.94922 20.4316 8.21562L19.1039 9.42305C18.773 9.72813 18.614 10.175 18.6355 10.6219C18.6398 10.7465 18.6441 10.8711 18.6441 11C18.6441 11.1289 18.6398 11.2535 18.6355 11.3781C18.614 11.8293 18.7687 12.2762 19.1039 12.577L20.4316 13.7844C20.7281 14.0508 20.8441 14.4676 20.7066 14.8414C20.5176 15.3527 20.2898 15.8426 20.0277 16.3152L19.8258 16.6633C19.5422 17.1359 19.2242 17.5828 18.8762 18.0039C18.6226 18.3133 18.2015 18.4164 17.8234 18.2961L16.1176 17.7547C15.6879 17.6172 15.2238 17.7074 14.8414 17.9523C14.6308 18.0855 14.416 18.2145 14.1926 18.3262C13.793 18.5324 13.4836 18.8934 13.3848 19.3316L13.0023 21.0805C12.9164 21.4715 12.6156 21.7809 12.2203 21.8453C11.6273 21.9441 11.0172 21.9957 10.3941 21.9957C9.77108 21.9957 9.16092 21.9441 8.56795 21.8453C8.17264 21.7809 7.87186 21.4715 7.78592 21.0805L7.4035 19.3316C7.30897 18.8934 6.9953 18.5324 6.59569 18.3262C6.37225 18.2102 6.15741 18.0855 5.94686 17.9523C5.56874 17.7074 5.10038 17.6172 4.67069 17.7547L2.96913 18.3004C2.591 18.4207 2.16991 18.3133 1.91639 18.0082C1.56835 17.5871 1.25038 17.1402 0.966783 16.6676L0.76483 16.3195C0.502721 15.8469 0.274987 15.357 0.0859241 14.8457C-0.0515759 14.4719 0.0644397 14.0551 0.360924 13.7887L1.68866 12.5812C2.01952 12.2762 2.1785 11.8293 2.15702 11.3824C2.15272 11.2578 2.14842 11.1332 2.14842 11.0043C2.14842 10.8754 2.15272 10.7508 2.15702 10.6262C2.1785 10.175 2.02381 9.72812 1.68866 9.42734L0.360924 8.21562C0.0644397 7.94922 -0.0515759 7.53242 0.0859241 7.15859C0.274987 6.64727 0.502721 6.15742 0.76483 5.68477L0.966783 5.33672C1.25038 4.86406 1.56835 4.41719 1.91639 3.99609C2.16991 3.68672 2.591 3.58359 2.96913 3.70391L4.67499 4.24531C5.10467 4.38281 5.56874 4.29258 5.95116 4.04766C6.1617 3.91445 6.37655 3.78555 6.59999 3.67383C6.9996 3.46758 7.30897 3.10664 7.4078 2.66836L7.79022 0.919531C7.87616 0.528516 8.17694 0.219141 8.57225 0.154687C9.16522 0.0515625 9.77538 0 10.3984 0C11.0215 0 11.6316 0.0515625 12.2246 0.150391C12.6199 0.214844 12.9207 0.524219 13.0066 0.915234L13.389 2.66406C13.4836 3.10234 13.793 3.46328 14.1969 3.66953C14.4203 3.78555 14.6351 3.91016 14.8457 4.04336C15.2238 4.28828 15.6922 4.37422 16.1219 4.24102L17.8277 3.69961C18.2058 3.5793 18.6269 3.68672 18.8805 3.9918C19.2285 4.41289 19.5465 4.85977 19.8301 5.33242L20.032 5.68047C20.2941 6.15312 20.5219 6.64297 20.7109 7.1543L20.7066 7.15859ZM10.3984 14.4375C11.3101 14.4375 12.1844 14.0753 12.8291 13.4307C13.4738 12.786 13.8359 11.9117 13.8359 11C13.8359 10.0883 13.4738 9.21398 12.8291 8.56932C12.1844 7.92466 11.3101 7.5625 10.3984 7.5625C9.48674 7.5625 8.6124 7.92466 7.96774 8.56932C7.32309 9.21398 6.96092 10.0883 6.96092 11C6.96092 11.9117 7.32309 12.786 7.96774 13.4307C8.6124 14.0753 9.48674 14.4375 10.3984 14.4375Z" fill="white"/>
</g>
</svg>
