<svg width="23" height="23" viewBox="0 0 23 23" fill="none" xmlns="http://www.w3.org/2000/svg">
<g id="message-regular 1" clip-path="url(#clip0_2_168)">
<path id="Vector" d="M7.1875 16.5312C8.37793 16.5312 9.34375 17.4971 9.34375 18.6875V19.4062L12.6006 16.9625C12.9734 16.684 13.4271 16.5312 13.8943 16.5312H20.125C20.5203 16.5312 20.8438 16.2078 20.8438 15.8125V2.875C20.8438 2.47969 20.5203 2.15625 20.125 2.15625H2.875C2.47969 2.15625 2.15625 2.47969 2.15625 2.875V15.8125C2.15625 16.2078 2.47969 16.5312 2.875 16.5312H7.1875ZM9.34375 22.1016L9.33477 22.1105L9.10566 22.2812L8.3375 22.8562C8.12187 23.018 7.82988 23.0449 7.58281 22.9236C7.33574 22.8023 7.1875 22.5553 7.1875 22.2812V21.3244V21.0369V21.0234V20.8438V18.6875H5.03125H2.875C1.28926 18.6875 0 17.3982 0 15.8125V2.875C0 1.28926 1.28926 0 2.875 0H20.125C21.7107 0 23 1.28926 23 2.875V15.8125C23 17.3982 21.7107 18.6875 20.125 18.6875H13.8943L9.34375 22.1016Z" fill="white" fill-opacity="0.9"/>
</g>
<defs>
<clipPath id="clip0_2_168">
<rect width="23" height="23" fill="white"/>
</clipPath>
</defs>
</svg>
